<svg id="visual" viewBox="0 0 1440 700" width="1440" height="700" xmlns="http://www.w3.org/2000/svg" xmlns:xlink="http://www.w3.org/1999/xlink" version="1.1"><path d="M940 700L948.7 680.5C957.3 661 974.7 622 966 583.2C957.3 544.3 922.7 505.7 938.5 466.8C954.3 428 1020.7 389 1057.8 350C1095 311 1103 272 1072.5 233.2C1042 194.3 973 155.7 973 116.8C973 78 1042 39 1076.5 19.5L1111 0L1440 0L1440 19.5C1440 39 1440 78 1440 116.8C1440 155.7 1440 194.3 1440 233.2C1440 272 1440 311 1440 350C1440 389 1440 428 1440 466.8C1440 505.7 1440 544.3 1440 583.2C1440 622 1440 661 1440 680.5L1440 700Z" fill="#121413" stroke-linecap="round" stroke-linejoin="miter"></path></svg>