<svg id="visual" viewBox="0 0 1440 700" width="1440" height="700" xmlns="http://www.w3.org/2000/svg" xmlns:xlink="http://www.w3.org/1999/xlink" version="1.1"><path d="M983 700L967.2 680.5C951.3 661 919.7 622 921.3 583.2C923 544.3 958 505.7 985.7 466.8C1013.3 428 1033.7 389 1054 350C1074.3 311 1094.7 272 1079 233.2C1063.3 194.3 1011.7 155.7 975.8 116.8C940 78 920 39 910 19.5L900 0L1440 0L1440 19.5C1440 39 1440 78 1440 116.8C1440 155.7 1440 194.3 1440 233.2C1440 272 1440 311 1440 350C1440 389 1440 428 1440 466.8C1440 505.7 1440 544.3 1440 583.2C1440 622 1440 661 1440 680.5L1440 700Z" fill="#121413" stroke-linecap="round" stroke-linejoin="miter"></path></svg>